<svg height="512pt" viewBox="-21 0 512 512" width="512pt" xmlns="http://www.w3.org/2000/svg"><path d="m462.429688 138.792969c-16.289063-31.652344-56.179688-47.609375-112.339844-44.949219-5.59375.265625-11.292969.710938-17.082032 1.332031-2.097656-5.4375-4.3125-10.714843-6.636718-15.8125-23.34375-51.179687-55.792969-79.363281-91.371094-79.363281s-68.027344 28.183594-91.367188 79.363281c-2.328124 5.097657-4.539062 10.375-6.636718 15.8125-5.792969-.621093-11.492188-1.070312-17.085938-1.332031-56.160156-2.664062-96.050781 13.296875-112.335937 44.949219-16.238281 31.550781-6.167969 73.160156 28.351562 117.207031-34.519531 44.046875-44.589843 85.65625-28.355469 117.207031 15.121094 29.378907 50.5625 45.238281 100.472657 45.238281 3.867187 0 7.832031-.097656 11.867187-.289062 5.59375-.265625 11.292969-.710938 17.082032-1.332031 2.097656 5.4375 4.3125 10.714843 6.636718 15.8125 23.34375 51.179687 55.792969 79.363281 91.371094 79.363281s68.027344-28.183594 91.371094-79.363281c2.324218-5.097657 4.539062-10.375 6.636718-15.8125 5.789063.621093 11.488282 1.070312 17.082032 1.332031 4.039062.191406 7.996094.289062 11.867187.289062 49.90625 0 85.355469-15.863281 100.472657-45.238281 16.234374-31.550781 6.164062-73.160156-28.355469-117.207031 34.519531-44.046875 44.59375-85.65625 28.355469-117.207031zm-110.917969-14.984375c3.554687-.167969 7.023437-.253906 10.40625-.253906 37.617187 0 64.257812 10.347656 73.839843 28.964843 9.941407 19.316407 1.980469 48.410157-21.816406 80.417969-16.828125-17.472656-36.757812-34.375-59.019531-50.113281-2.875-20.507813-6.964844-40.128907-12.1875-58.441407 2.957031-.246093 5.882813-.4375 8.777344-.574218zm-73.054688 216.652344c-14.445312 7.441406-28.992187 14.101562-43.457031 19.914062-14.460938-5.8125-29.007812-12.46875-43.453125-19.914062-17.03125-8.777344-33.25-18.308594-48.410156-28.390626-2.015625-18.105468-3.054688-36.898437-3.054688-56.070312s1.039063-37.964844 3.054688-56.070312c15.160156-10.085938 31.378906-19.613282 48.410156-28.390626 14.445313-7.441406 28.992187-14.101562 43.453125-19.914062 14.464844 5.8125 29.011719 12.46875 43.457031 19.914062 17.027344 8.777344 33.246094 18.308594 48.40625 28.390626 2.015625 18.105468 3.054688 36.898437 3.054688 56.070312s-1.039063 37.964844-3.054688 56.070312c-15.160156 10.082032-31.378906 19.613282-48.40625 28.390626zm42.277344 10.867187c-2.273437 11.164063-4.957031 21.925781-8.035156 32.195313-11.742188-2.191407-23.808594-5.097657-36.070313-8.679688 5.199219-2.476562 10.394532-5.050781 15.570313-7.71875 9.765625-5.03125 19.292969-10.308594 28.535156-15.796875zm-127.359375 23.515625c-12.265625 3.582031-24.332031 6.488281-36.074219 8.679688-3.074219-10.269532-5.757812-21.03125-8.035156-32.195313 9.246094 5.488281 18.773437 10.765625 28.539063 15.796875 5.175781 2.667969 10.367187 5.242188 15.570312 7.71875zm-82.320312-86.210938c-13.117188-10.546874-25.046876-21.488281-35.550782-32.632812 10.503906-11.144531 22.433594-22.085938 35.550782-32.632812-.644532 10.742187-.96875 21.636718-.96875 32.632812s.324218 21.890625.96875 32.632812zm66.75-143.757812c-9.769532 5.03125-19.292969 10.308594-28.539063 15.796875 2.277344-11.164063 4.960937-21.925781 8.035156-32.195313 11.742188 2.191407 23.808594 5.097657 36.070313 8.679688-5.199219 2.476562-10.390625 5.050781-15.566406 7.71875zm98.824218-7.71875c12.261719-3.582031 24.328125-6.488281 36.070313-8.679688 3.074219 10.269532 5.757812 21.03125 8.035156 32.195313-9.246094-5.488281-18.769531-10.765625-28.539063-15.796875-5.175781-2.667969-10.367187-5.242188-15.566406-7.71875zm82.320313 86.210938c13.117187 10.546874 25.042969 21.488281 35.546875 32.632812-10.503906 11.144531-22.429688 22.085938-35.546875 32.632812.640625-10.742187.96875-21.636718.96875-32.632812s-.328125-21.890625-.96875-32.632812zm-188.027344-131.554688c17.917969-39.28125 41.273437-61.8125 64.078125-61.8125s46.160156 22.53125 64.078125 61.8125c1.207031 2.640625 2.375 5.335938 3.515625 8.085938-21.871094 4.378906-44.621094 10.964843-67.59375 19.566406-22.972656-8.597656-45.722656-15.1875-67.589844-19.566406 1.136719-2.75 2.308594-5.445313 3.511719-8.085938zm-136.679687 60.707031c9.582031-18.617187 36.21875-28.964843 73.839843-28.964843 3.378907 0 6.851563.085937 10.40625.253906 2.894531.136718 5.820313.328125 8.777344.574218-5.222656 18.3125-9.3125 37.933594-12.1875 58.441407-22.261719 15.738281-42.1875 32.640625-59.019531 50.113281-23.796875-32.003906-31.753906-61.101562-21.816406-80.417969zm84.246093 235.671875c-43.097656 2.042969-73.800781-8.417968-84.246093-28.710937-9.9375-19.316407-1.980469-48.414063 21.816406-80.417969 16.832031 17.472656 36.757812 34.375 59.019531 50.113281 2.875 20.507813 6.964844 40.128907 12.1875 58.441407-2.957031.246093-5.882813.4375-8.777344.574218zm180.589844 31.996094c-17.917969 39.28125-41.273437 61.8125-64.078125 61.8125s-46.160156-22.53125-64.078125-61.8125c-1.203125-2.640625-2.375-5.335938-3.511719-8.085938 21.867188-4.378906 44.617188-10.964843 67.589844-19.566406 22.972656 8.597656 45.722656 15.1875 67.59375 19.566406-1.140625 2.75-2.3125 5.445313-3.515625 8.085938zm136.679687-60.707031c-10.441406 20.292969-41.140624 30.757812-84.246093 28.710937-2.894531-.136718-5.820313-.328125-8.777344-.574218 5.222656-18.3125 9.3125-37.933594 12.1875-58.441407 22.261719-15.738281 42.191406-32.640625 59.019531-50.113281 23.796875 32.007812 31.757813 61.101562 21.816406 80.417969zm0 0"/><path d="m235 184.242188c-39.542969 0-71.710938 32.191406-71.710938 71.757812s32.167969 71.757812 71.710938 71.757812 71.714844-32.191406 71.714844-71.757812-32.171875-71.757812-71.714844-71.757812zm0 113.515624c-23 0-41.714844-18.734374-41.714844-41.757812s18.714844-41.757812 41.714844-41.757812c23.003906 0 41.714844 18.734374 41.714844 41.757812s-18.710938 41.757812-41.714844 41.757812zm0 0"/></svg>