<svg fill="white" id="Layer_1" enable-background="new 0 0 512 512" height="512" viewBox="0 0 512 512" width="512" xmlns="http://www.w3.org/2000/svg"><path d="m180 445.48v36.52h121c16.542 0 30 13.458 30 30h30c0-16.542 13.458-30 30-30h121v-242h-62.502c.329-4.993.502-10.002.502-15 0-60.1-23.404-116.602-65.901-159.099-42.497-42.497-98.999-65.901-159.099-65.901s-116.602 23.404-159.099 65.901-65.901 98.999-65.901 159.099c0 54.481 19.726 107.051 55.543 148.023 32.583 37.272 76.392 62.678 124.457 72.457zm-127.761-130.48h48.773c4.165 16.128 9.471 31.479 15.896 45.789 6.673 14.861 14.293 28.071 22.72 39.484-37.526-18.425-68.143-48.568-87.389-85.273zm277.761-90c0 7.413-.242 14.793-.699 22.115-8.437-4.533-18.072-7.115-28.301-7.115h-61v-75h84.836c3.396 19.133 5.164 39.308 5.164 60zm-90-90v-102.927c20.969 5.813 40.742 23.725 56.829 51.876 8.656 15.147 15.736 32.369 21.101 51.05h-77.93zm-30-102.927v102.927h-77.93c5.365-18.682 12.445-35.903 21.101-51.05 16.087-28.152 35.86-46.064 56.829-51.877zm0 132.927v75h-30v45h-54.736c-3.446-19.299-5.264-39.548-5.264-60 0-20.692 1.768-40.867 5.164-60zm-65.725 183.5c-4.683-10.429-8.722-21.677-12.103-33.5h47.828v85.492c-13.609-12.329-25.888-30.084-35.725-51.992zm-49.521-63.5h-55.189c-6.21-19-9.565-39.185-9.565-60 0-20.927 3.327-41.089 9.457-60h55.298c-3.131 19.306-4.755 39.45-4.755 60 0 20.585 1.625 40.698 4.754 60zm206.246 167h-91v-182h91c16.542 0 30 13.458 30 30v160.07c-8.832-5.123-19.076-8.07-30-8.07zm181 0h-91c-10.924 0-21.168 2.947-30 8.07v-160.07c0-16.542 13.458-30 30-30h91zm-91-212c-11.663 0-22.548 3.362-31.769 9.143.502-7.997.769-16.055.769-24.143 0-20.55-1.624-40.694-4.755-60h55.298c6.13 18.911 9.457 39.073 9.457 60 0 5-.197 10.013-.576 15zm6.947-105h-48.961c-6.233-24.197-15.014-46.516-26.11-65.935-3.978-6.961-8.182-13.433-12.59-19.399 37.538 18.334 68.349 48.372 87.661 85.334zm-258.233-85.333c-4.408 5.966-8.613 12.438-12.59 19.399-11.096 19.419-19.877 41.738-26.11 65.935h-48.961c19.312-36.963 50.123-67.001 87.661-85.334z"/><path d="m240 300h61v30h-61z"/><path d="m240 360h61v30h-61z"/><path d="m391 300h61v30h-61z"/><path d="m391 360h61v30h-61z"/></svg>