<svg fill="white" viewBox="0 -32 512 512" xmlns="http://www.w3.org/2000/svg"><path d="m263.515625 207.90625c0-17.402344-14.160156-31.5625-31.5625-31.5625s-31.5625 14.160156-31.5625 31.5625 14.160156 31.5625 31.5625 31.5625 31.5625-14.160156 31.5625-31.5625zm-48.09375 0c0-9.117188 7.414063-16.53125 16.53125-16.53125s16.53125 7.414062 16.53125 16.53125-7.414063 16.53125-16.53125 16.53125-16.53125-7.414062-16.53125-16.53125zm0 0"/><path d="m359.703125 207.90625c0-17.402344-14.160156-31.5625-31.5625-31.5625s-31.5625 14.160156-31.5625 31.5625 14.160156 31.5625 31.5625 31.5625 31.5625-14.160156 31.5625-31.5625zm-48.09375 0c0-9.117188 7.414063-16.53125 16.53125-16.53125s16.53125 7.414062 16.53125 16.53125-7.414063 16.53125-16.53125 16.53125-16.53125-7.414062-16.53125-16.53125zm0 0"/><path d="m135.765625 239.46875c17.402344 0 31.5625-14.160156 31.5625-31.5625s-14.160156-31.5625-31.5625-31.5625-31.5625 14.160156-31.5625 31.5625 14.160156 31.5625 31.5625 31.5625zm0-48.09375c9.117187 0 16.53125 7.414062 16.53125 16.53125s-7.414063 16.53125-16.53125 16.53125-16.53125-7.414062-16.53125-16.53125 7.414063-16.53125 16.53125-16.53125zm0 0"/><path d="m512 127.75c0-39.503906-32.136719-71.640625-71.640625-71.640625-13.902344 0-26.878906 3.992187-37.878906 10.875-43.851563-42.605469-105.78125-66.984375-170.527344-66.984375-40.582031 0-80.523437 9.53125-115.5 27.558594-3.6875 1.902344-5.136719 6.433594-3.234375 10.121094 1.902344 3.691406 6.433594 5.140624 10.121094 3.238281 32.855468-16.9375 70.414062-25.886719 108.613281-25.886719 60.140625 0 117.617187 22.28125 158.59375 61.304688-13.445313 13.027343-21.828125 31.253906-21.828125 51.414062 0 39.5 32.140625 71.640625 71.640625 71.640625 2.800781 0 5.558594-.179687 8.277344-.496094.15625 3.003907.238281 6.015625.238281 9.011719 0 106.351562-97.308594 192.875-216.921875 192.875-24.554687 0-48.671875-3.628906-71.683594-10.796875-1.851562-.574219-3.855469-.414063-5.59375.457031l-69.066406 34.53125 20.363281-52.945312c1.269532-3.300782.070313-7.035156-2.882812-8.976563-55.140625-36.277343-88.058594-94.277343-88.058594-155.144531 0-58.304688 29.21875-112.871094 80.167969-149.714844 3.363281-2.433594 4.121093-7.132812 1.6875-10.496094-2.429688-3.363281-7.128907-4.117187-10.492188-1.683593-54.90625 39.703125-86.394531 98.710937-86.394531 161.894531 0 33.25 8.96875 66.316406 25.9375 95.628906 15.394531 26.59375 37.398438 50.230469 63.867188 68.667969l-25.179688 65.460937c-2.402344 6.25 4.359375 12.425782 10.375 9.417969l83.714844-41.859375c23.578125 7.027344 48.199218 10.589844 73.238281 10.589844 61.796875 0 119.9375-21.523438 163.707031-60.601562 44.007813-39.292969 68.246094-91.609376 68.246094-147.304688 0-4.113281-.144531-8.261719-.414062-12.371094 28.183593-9.644531 48.507812-36.378906 48.507812-67.785156zm-71.640625 56.609375c-31.214844 0-56.609375-25.394531-56.609375-56.609375s25.394531-56.609375 56.609375-56.609375 56.609375 25.394531 56.609375 56.609375-25.394531 56.609375-56.609375 56.609375zm0 0"/><path d="m443.234375 96.761719c-2.804687-1.164063-6.039063-.523438-8.1875 1.628906l-16.03125 16.03125c-4.28125 4.277344-1.78125 11.867187 4.21875 12.746094 4.3125.632812 6.894531-2.605469 9.613281-5.324219v29.953125c0 4.148437 3.363282 7.515625 7.511719 7.515625 4.152344 0 7.515625-3.367188 7.515625-7.515625v-48.09375c0-3.039063-1.832031-5.78125-4.640625-6.941406zm0 0"/></svg>