<svg height="1168pt" viewBox="-78 0 1168 1168.7477" width="1168pt" xmlns="http://www.w3.org/2000/svg"><path d="m982.054688 299.253906c-79.855469-171.726562-247.332032-285.929687-436.359376-297.539062l-19.074218-1.714844-16.875.425781c-58.3125 2.140625-115.46875 16.914063-167.5 43.332031-138.347656 69.167969-225.523438 210.757813-225.027344 365.429688v72.515625l-114.0625 190.121094c-3.617188 6.011719-3.710938 13.511719-.261719 19.621093 3.457031 6.101563 9.929688 9.886719 16.941407 9.886719h121.949218l-11.816406 175.535157c-9.058594 51.945312 25.171875 101.5625 76.9375 111.558593 1.285156.25 2.582031.371094 3.902344.371094.703125 0 1.410156-.035156 2.105468-.117187l118.542969-12.855469v173.449219c0 10.769531 8.726563 19.472656 19.476563 19.472656h467.425781c10.75 0 19.472656-8.703125 19.472656-19.472656v-193.546876l152.207031-376.035156c33.449219-91.039062 30.589844-191.460937-7.984374-280.4375zm-28.410157 266.585938-153.332031 378.933594c-1.074219 2.785156-1.488281 5.777343-1.191406 8.730468 0 .410156-.242188.757813-.242188 1.171875v175.117188h-428.472656v-175.273438c0-.414062-.203125-.757812-.230469-1.167969-.011719-.410156.175781-.859374.113281-1.332031-.242187-1.167969-.589843-2.320312-1.070312-3.417969-.1875-.742187-.417969-1.46875-.695312-2.183593-.835938-1.882813-1.972657-3.613281-3.378907-5.121094-.152343-.179687-.226562-.425781-.382812-.609375l-.339844-.285156c-4.074219-4.160156-9.804687-6.222656-15.585937-5.632813l-137.054688 14.839844c-30.246094-7.609375-49.21875-37.578125-43.179688-68.171875l13.441407-198.273438c.746093-10.738281-7.347657-20.039062-18.074219-20.792968-1.59375-.105469-109.675781 0-109.675781 0l99.160156-165.304688c.171875-.417968.328125-.835937.449219-1.261718.558594-1.167969.996094-2.390626 1.304687-3.648438.390625-1.273438.644531-2.570312.78125-3.894531 0-.449219.25-.835938.25-1.304688v-77.769531c-.527343-139.972656 78.316407-268.167969 203.484375-330.84375 47.074219-23.886719 98.761719-37.261719 151.519532-39.199219h15.417968c180.816406 5.152344 343.257813 111.871094 419.777344 275.78125 34.457031 79.625 37.035156 169.433594 7.207031 250.914063zm0 0"/><path d="m526.222656 97.574219c-86.058594.109375-166.183594 43.875-212.789062 116.21875-46.601563 72.335937-53.332032 163.382812-17.863282 241.792969v.222656l.128907.382812c.476562.757813 1.003906 1.480469 1.578125 2.15625 1.132812 2.574219 3.148437 4.640625 5.695312 5.839844 1.035156.777344 2.152344 1.421875 3.324219 1.953125 1.363281.425781 2.753906.699219 4.175781.835937 1 .296876 2.035156.511719 3.066406.640626h66.996094c.589844-.09375 1.164063-.210938 1.742188-.34375 1.324218-.125 2.621094-.394532 3.886718-.785157 1.253907-.367187 2.476563-.875 3.621094-1.492187.566406-.203125 1.105469-.425782 1.640625-.691406.523438-.34375.796875-.898438 1.285157-1.289063 1.03125-.832031 1.96875-1.785156 2.808593-2.820313.738281-.9375 1.390625-1.945312 1.949219-3.011718 1.171875-2.265625 1.886719-4.71875 2.132812-7.242188.183594-.589844.316407-1.195312.414063-1.808594-.082031-.585937-.199219-1.160156-.351563-1.746093-.113281-1.320313-.378906-2.621094-.78125-3.890625-.359374-1.261719-.863281-2.488282-1.492187-3.632813-.195313-.5625-.429687-1.105469-.683594-1.636719-39.566406-59.398437-33.660156-138.105468 14.328125-190.933593 47.984375-52.828125 125.75-66.246094 188.664063-32.554688 62.914062 33.6875 94.859375 105.855469 77.488281 175.078125-17.371094 69.21875-79.597656 117.757813-150.964844 117.753906-10.761718 0-19.484375 8.722657-19.484375 19.46875v253.191407c0 10.769531 8.722657 19.480469 19.484375 19.480469h77.898438c10.757812 0 19.484375-8.710938 19.484375-19.480469v-194.988281c111.390625-46.382813 174.539062-164.945313 150.859375-283.265626-23.664063-118.316406-127.589844-203.460937-248.242188-203.402343zm71.433594 455.09375c-.1875 0-.324219.234375-.507812.300781-1.300782.578125-2.527344 1.300781-3.660157 2.175781-.980469.566407-1.90625 1.210938-2.769531 1.945313-.824219.921875-1.566406 1.90625-2.1875 2.972656-.796875.972656-1.488281 1.980469-2.085938 3.070312-.359374 1.054688-.652343 2.125-.84375 3.226563-.429687 1.347656-.710937 2.753906-.835937 4.167969 0 .21875-.121094.371094-.121094.589844v188.636718h-38.949219v-215.339844c84.449219-8.097656 154.046876-69.707031 172.324219-152.554687 18.28125-82.839844-18.929687-168.015625-92.132812-210.886719-73.203125-42.878906-165.695313-33.671875-229.023438 22.78125-63.308593 56.464844-83.007812 147.300782-48.78125 224.914063h-21.269531c-31.789062-81.304688-11.074219-173.769531 52.382812-233.726563 63.449219-59.960937 156.9375-75.40625 236.3125-39.074218 79.386719 36.335937 128.777344 117.203124 124.835938 204.414062-3.90625 87.226562-60.367188 163.324219-142.6875 192.386719zm0 0"/><path d="m604.121094 837.65625h-77.898438c-10.761718 0-19.484375 8.71875-19.484375 19.480469v77.902343c0 10.765626 8.722657 19.480469 19.484375 19.480469h77.898438c10.757812 0 19.484375-8.714843 19.484375-19.480469v-77.902343c0-10.761719-8.726563-19.480469-19.484375-19.480469zm-19.476563 77.902344h-38.949219v-38.949219h38.949219zm0 0"/></svg>